
<svg xmlns="http://www.w3.org/2000/svg" xmlns:xlink="http://www.w3.org/1999/xlink" width="236px" height="254px" viewBox="0 0 236 254" version="1.1">
    <g id="Logo_Moncler_Genius" stroke="none" stroke-width="1" fill="none" fill-rule="evenodd">
        <g id="RAW-LOGO-GENIUS-ESTERNO" fill="#f8f9fa">
            <polyline id="Fill-1" points="17.216 203.482 29.306 183.624 33.679 183.624 33.679 216.858 27.248 216.858 27.248 198.286 19.531 211.456 15.158 211.456 7.184 198.286 7.184 216.858 0.753 216.858 0.753 183.624 5.126 183.624 17.216 203.482"/>
            <path d="M57.653,211.456 C63.827,211.456 68.457,206.312 68.457,200.138 C68.457,193.964 63.827,188.819 57.653,188.819 C51.479,188.819 46.849,193.964 46.849,200.138 C46.849,206.312 51.479,211.456 57.653,211.456 M57.653,183.366 C67.942,183.366 74.888,190.826 74.888,200.344 C74.888,209.604 67.942,217.321 57.653,217.321 C47.364,217.321 40.418,209.861 40.418,200.344 C40.418,190.826 47.364,183.366 57.653,183.366" id="Fill-2"/>
            <polyline id="Fill-3" points="81.576 183.624 85.949 183.624 104.212 205.282 104.212 183.624 110.643 183.624 110.643 216.858 106.27 216.858 87.75 195.199 87.75 216.858 81.576 216.858 81.576 183.624"/>
            <path d="M123.813,200.138 C123.813,206.568 128.701,211.456 135.132,211.456 C139.505,211.456 142.592,209.398 144.393,206.826 L148.765,210.685 C145.936,214.286 141.048,217.115 134.874,217.115 C124.585,217.115 117.383,209.655 117.383,200.138 C117.383,190.62 124.585,183.16 134.874,183.16 C139.762,183.16 143.878,184.961 146.965,187.791 L142.849,192.164 C140.791,190.105 138.219,188.819 134.874,188.819 C128.443,189.025 123.813,193.913 123.813,200.138" id="Fill-4"/>
            <polyline id="Fill-5" points="154.167 183.624 160.341 183.624 160.341 211.199 174.231 211.199 174.231 216.858 154.167 216.858 154.167 183.624"/>
            <polyline id="Fill-6" points="186.063 189.283 186.063 196.228 196.404 196.228 196.404 201.938 186.063 201.938 186.063 211.199 200.006 211.199 200.006 216.858 179.891 216.858 179.891 183.624 199.749 183.624 199.749 189.283 186.063 189.283"/>
            <path d="M218.784,196.228 C220.585,196.228 221.099,196.055 221.871,195.456 C222.385,194.941 222.899,193.913 222.899,192.884 C222.899,191.855 222.623,190.93 221.871,190.312 C220.965,189.529 220.585,189.283 218.784,189.283 L213.382,189.283 L213.382,196.228 L218.784,196.228 Z M213.382,202.196 L213.382,216.858 L206.951,216.858 L206.951,183.933 L219.041,183.933 C222.385,183.933 224.7,184.961 226.244,186.505 C228.044,188.306 229.073,190.62 229.073,193.192 C229.073,195.765 228.044,198.337 226.244,199.881 C225.472,200.652 224.186,201.424 222.899,201.938 L235.247,217.115 L227.272,217.115 L215.439,202.453 L213.382,202.196 Z" id="Fill-7"/>
            <path d="M75.402,248.755 C73.344,251.327 69.743,253.128 66.142,253.128 C58.939,253.128 53.538,247.983 53.538,240.78 C53.538,233.836 58.682,228.434 65.627,228.434 C68.971,228.434 72.315,229.72 74.373,232.035 L72.058,234.35 C70.772,232.807 68.2,231.521 65.627,231.521 C60.74,231.521 56.881,235.379 56.881,240.523 C56.881,245.926 60.74,249.526 65.885,249.526 C68.457,249.526 70.515,248.498 71.801,247.212 L71.801,241.038 L64.855,241.038 L64.855,237.694 L75.145,237.694 L75.402,248.755" id="Fill-8"/>
            <polyline id="Fill-9" points="92.894 238.208 92.894 241.553 84.92 241.553 84.92 249.784 95.724 249.784 95.724 252.871 81.576 252.871 81.576 228.948 95.466 228.948 95.466 232.035 84.92 232.035 84.92 238.208 92.894 238.208"/>
            <polyline id="Fill-10" points="103.955 235.379 103.955 252.871 100.611 252.871 100.611 228.948 102.926 228.948 117.588 246.439 117.588 228.948 120.984 228.948 120.984 252.871 118.669 252.871 103.955 235.379"/>
            <polygon id="Fill-11" points="127.929 253.128 131.273 253.128 131.273 228.948 127.929 228.948"/>
            <path d="M140.533,250.041 C138.99,248.24 137.961,246.183 137.961,242.839 L137.961,228.69 L141.306,228.69 L141.306,243.096 C141.306,245.411 141.819,246.697 142.849,247.726 C144.135,249.013 145.936,249.784 147.993,249.784 C150.051,249.784 151.852,249.013 153.138,247.726 C154.167,246.697 154.682,245.153 154.682,243.096 L154.682,228.69 L158.025,228.69 L158.025,242.839 C158.025,246.183 156.996,248.24 155.453,250.041 C153.652,252.099 150.823,253.128 147.993,253.128 C145.164,253.385 142.334,252.099 140.533,250.041" id="Fill-12"/>
            <path d="M164.714,246.954 C166,248.755 168.058,250.041 170.63,250.041 C172.945,250.041 174.746,248.498 174.746,246.439 C174.746,242.839 169.601,242.324 166.514,240.267 C164.714,239.237 163.428,237.437 163.428,234.864 C163.428,231.263 166.514,228.434 170.63,228.434 C173.717,228.434 175.774,229.72 177.061,230.749 L175.003,233.321 C173.717,232.292 172.173,231.777 170.63,231.777 C168.572,231.777 166.514,232.807 166.514,235.122 C166.514,238.208 171.659,238.723 174.746,240.78 C176.289,241.81 177.832,243.61 177.832,246.183 C177.832,250.299 174.488,253.128 170.373,253.128 C167.028,253.128 163.941,251.585 161.884,249.013 L164.714,246.954" id="Fill-13"/>
            <path d="M95.175,121.876 L110.392,121.876 L110.392,106.659 L95.175,106.659 L95.175,121.876 Z M95.175,60.914 L110.392,60.914 L110.392,45.698 L95.175,45.698 L95.175,60.914 Z M95.175,30.433 L110.392,30.433 L110.392,15.217 L95.175,15.217 L95.175,30.433 Z M95.223,91.395 L110.439,91.395 L110.439,76.178 L95.223,76.178 L95.223,91.395 Z M125.656,121.876 L140.873,121.876 L140.873,106.659 L125.656,106.659 L125.656,121.876 Z M125.656,91.395 L140.873,91.395 L140.873,76.178 L125.656,76.178 L125.656,91.395 Z M125.656,60.914 L140.873,60.914 L140.873,45.698 L125.656,45.698 L125.656,60.914 Z M125.656,30.433 L140.873,30.433 L140.873,15.217 L125.656,15.217 L125.656,30.433 Z M87.543,158.033 L148.457,158.033 L148.457,0 L87.543,0 L87.543,158.033 Z" id="Fill-14"/>
        </g>
    </g>
</svg>